<?xml version="1.0" encoding="UTF-8"?>
<svg id="Layer_1" data-name="Layer 1" xmlns="http://www.w3.org/2000/svg" viewBox="0 0 143 33">
  <defs>
    <style>
      .cls-1 {
        fill-rule: evenodd;
      }

      .cls-1, .cls-2 {
        fill: #fff;
      }
    </style>
  </defs>
  <path class="cls-2" d="M40.33,27.05V5.5h0c2.2,0,3.99,1.78,3.99,3.99v17.56h-3.99Z"/>
  <path class="cls-2" d="M59.21,27.05v-7.63c0-.37-.02-.84-.06-1.41-.04-.58-.16-1.16-.37-1.74-.21-.58-.54-1.06-1.01-1.45-.46-.39-1.11-.58-1.96-.58-.34,0-.71.05-1.1.16-.39.11-.76.32-1.1.64-.34.31-.63.77-.85,1.38-.22.61-.32,1.42-.32,2.42l-2.29-1.11c0-1.28.25-2.47.76-3.59.51-1.12,1.27-2.02,2.29-2.71,1.03-.69,2.32-1.03,3.87-1.03,1.24,0,2.25.21,3.03.64s1.39.97,1.82,1.63c.44.66.75,1.35.94,2.07.19.71.3,1.36.34,1.95.04.59.06,1.02.06,1.29v9.07h-4.05ZM48.39,27.05V10.89h3.55v5.36h.5v10.81h-4.04Z"/>
  <path class="cls-2" d="M72.89,27.5c-1.46,0-2.73-.37-3.83-1.12-1.09-.75-1.95-1.77-2.56-3.05-.61-1.29-.91-2.74-.91-4.36s.31-3.11.92-4.39c.63-1.29,1.5-2.3,2.62-3.04,1.12-.74,2.44-1.11,3.96-1.11s2.77.37,3.8,1.12c1.03.75,1.8,1.77,2.33,3.05s.79,2.74.79,4.36-.27,3.07-.81,4.36c-.53,1.29-1.32,2.3-2.37,3.05s-2.37,1.12-3.94,1.12ZM73.54,23.88c.89,0,1.6-.2,2.13-.61.54-.41.92-.98,1.16-1.72.23-.74.35-1.6.35-2.57s-.12-1.84-.35-2.57c-.23-.74-.61-1.31-1.13-1.72-.51-.41-1.18-.61-2.01-.61-.89,0-1.62.22-2.2.67-.57.44-.99,1.03-1.26,1.78-.27.74-.41,1.56-.41,2.45s.13,1.74.4,2.48c.26.74.67,1.33,1.22,1.77.55.44,1.25.66,2.11.66ZM77.17,27.05v-11.07h-.5V5.5h0c2.22,0,4.02,1.8,4.02,4.02v17.54h-3.52Z"/>
  <path class="cls-2" d="M91.86,27.5c-1.62,0-3.05-.35-4.29-1.06-1.23-.72-2.2-1.7-2.9-2.95-.69-1.26-1.04-2.69-1.04-4.31,0-1.77.34-3.3,1.03-4.61.68-1.31,1.63-2.32,2.83-3.04,1.2-.73,2.58-1.09,4.15-1.09,1.66,0,3.07.4,4.24,1.2,1.16.8,2.02,1.92,2.58,3.37s.75,3.15.59,5.1h-3.94v-1.5c0-1.65-.26-2.83-.78-3.55-.51-.73-1.34-1.09-2.51-1.09-1.36,0-2.36.42-3,1.27-.64.84-.95,2.08-.95,3.73,0,1.51.32,2.67.95,3.5.64.82,1.59,1.23,2.83,1.23.78,0,1.45-.17,2.01-.52.56-.35.98-.85,1.28-1.51l3.99,1.17c-.6,1.48-1.54,2.62-2.83,3.44-1.28.82-2.68,1.23-4.21,1.23ZM86.61,20.11v-3.02h10.49v3.02h-10.49Z"/>
  <path class="cls-2" d="M120.66,27.05v-9.55c0-1.07-.25-1.9-.75-2.48-.49-.6-1.17-.9-2.04-.9-.56,0-1.04.13-1.45.4-.41.26-.73.63-.97,1.11-.22.47-.34,1.01-.34,1.63l-1.67-1.14c0-1.11.25-2.09.76-2.93.52-.85,1.21-1.51,2.07-1.98.87-.48,1.83-.72,2.89-.72,1.81,0,3.17.55,4.09,1.65.93,1.09,1.39,2.51,1.39,4.28v10.63h-3.99ZM101.58,27.05V10.89h3.52v5.36h.5v10.81h-4.01ZM111.14,27.05v-9.55c0-1.07-.25-1.9-.75-2.48-.49-.6-1.17-.9-2.04-.9s-1.5.29-2.01.88c-.5.58-.75,1.33-.75,2.26l-1.67-1.2c0-1.06.26-2.01.78-2.84.52-.84,1.21-1.5,2.08-1.99.88-.49,1.86-.73,2.94-.73,1.24,0,2.26.27,3.05.81.8.54,1.39,1.26,1.77,2.16.38.9.57,1.89.57,2.96v10.63h-3.99Z"/>
  <path class="cls-2" d="M138.96,27.05v-7.63c0-.37-.02-.84-.06-1.41-.04-.58-.16-1.16-.37-1.74-.21-.58-.54-1.06-1.01-1.45-.46-.39-1.11-.58-1.96-.58-.34,0-.71.05-1.1.16-.39.11-.76.32-1.1.64-.34.31-.63.77-.85,1.38-.21.61-.32,1.42-.32,2.42l-2.29-1.11c0-1.28.25-2.47.76-3.59.51-1.12,1.27-2.02,2.29-2.71,1.03-.69,2.32-1.03,3.87-1.03,1.24,0,2.25.21,3.03.64s1.39.97,1.82,1.63c.44.66.75,1.35.94,2.07.19.71.3,1.36.34,1.95.04.59.06,1.02.06,1.29v9.07h-4.04ZM128.14,27.05V10.89h3.55v5.36h.5v10.81h-4.04Z"/>
  <path class="cls-1" d="M16.5,0C7.39,0,0,7.39,0,16.5s7.39,16.5,16.5,16.5h16.5v-16.5C33,7.39,25.61,0,16.5,0ZM12.81,5.5h-2.2c0,1.29.92,2.2,2.2,2.2h2.2v17.05h-2.2c-1.28,0-2.2.91-2.2,2.2h2.2c1.28,0,2.2-.91,2.2-2.2,0,1.29,1.47,2.2,2.75,2.2h4.4c0-1.29-.92-2.2-2.2-2.2-1.1,0-1.65,0-1.92-.28-.28-.27-.28-.82-.28-1.92v-12.65c0-1.03.63-2.2,1.65-2.2h.55c1.28,0,2.2-.91,2.2-2.2h-2.2c-1.28,0-2.2.91-2.2,2.2v2.2c0-1.29-1.47-2.2-2.75-2.2,0-1.29-.92-2.2-2.2-2.2Z"/>
</svg>