<svg version="1.1" xmlns="http://www.w3.org/2000/svg" viewBox="0 0 760 497" width="760" height="497">
  <!-- svg-source:excalidraw -->
  
  <defs>
    <style>
      @font-face {
        font-family: "Virgil";
        src: url("https://excalidraw.com/Virgil.woff2");
      }
      @font-face {
        font-family: "Cascadia";
        src: url("https://excalidraw.com/Cascadia.woff2");
      }
    
      @font-face {
        font-family: "Nunito";
        src: url("https://excalidraw.nyc3.cdn.digitaloceanspaces.com/oss/fonts/Nunito/Nunito-Regular-XRXI3I6Li01BKofiOc5wtlZ2di8HDIkhdTQ3j6zbXWjgeg.woff2");
      }
</style>
  </defs>
  <rect x="0" y="0" width="760" height="497" fill="#ffffff"></rect><g stroke-linecap="round" transform="translate(270 10) rotate(0 100 32.5)"><path d="M0 0 L200 0 L200 65 L0 65" stroke="none" stroke-width="0" fill="#d0bfff"></path><path d="M0 0 C40.09 0, 80.18 0, 200 0 M0 0 C67.04 0, 134.08 0, 200 0 M200 0 C200 22.76, 200 45.53, 200 65 M200 0 C200 15.57, 200 31.14, 200 65 M200 65 C126.55 65, 53.1 65, 0 65 M200 65 C121.75 65, 43.5 65, 0 65 M0 65 C0 46.74, 0 28.48, 0 0 M0 65 C0 40.52, 0 16.04, 0 0" stroke="#7048e8" stroke-width="2" fill="none"></path></g><g stroke-linecap="round" transform="translate(550 18) rotate(0 75 25)"><path d="M0 0 L150 0 L150 50 L0 50" stroke="none" stroke-width="0" fill="#e9ecef"></path><path d="M0 0 C30.07 0, 60.15 0, 150 0 M0 0 C52.31 0, 104.61 0, 150 0 M150 0 C150 16.26, 150 32.53, 150 50 M150 0 C150 16.18, 150 32.35, 150 50 M150 50 C101.4 50, 52.81 50, 0 50 M150 50 C97.44 50, 44.88 50, 0 50 M0 50 C0 32.55, 0 15.1, 0 0 M0 50 C0 39.29, 0 28.57, 0 0" stroke="#868e96" stroke-width="2" fill="none"></path></g><g stroke-linecap="round" transform="translate(270 140) rotate(0 100 32.5)"><path d="M0 0 L200 0 L200 65 L0 65" stroke="none" stroke-width="0" fill="#a5d8ff"></path><path d="M0 0 C40.11 0, 80.22 0, 200 0 M0 0 C72.45 0, 144.89 0, 200 0 M200 0 C200 19.52, 200 39.04, 200 65 M200 0 C200 13.49, 200 26.97, 200 65 M200 65 C143.86 65, 87.72 65, 0 65 M200 65 C138.1 65, 76.2 65, 0 65 M0 65 C0 50.89, 0 36.77, 0 0 M0 65 C0 48.62, 0 32.25, 0 0" stroke="#1971c2" stroke-width="2" fill="none"></path></g><g stroke-linecap="round" transform="translate(550 148) rotate(0 75 25)"><path d="M0 0 L150 0 L150 50 L0 50" stroke="none" stroke-width="0" fill="#e9ecef"></path><path d="M0 0 C30.09 0, 60.18 0, 150 0 M0 0 C56.36 0, 112.72 0, 150 0 M150 0 C150 13.76, 150 27.53, 150 50 M150 0 C150 14.57, 150 29.14, 150 50 M150 50 C114.39 50, 78.77 50, 0 50 M150 50 C109.7 50, 69.41 50, 0 50 M0 50 C0 35.74, 0 21.48, 0 0 M0 50 C0 35.52, 0 21.04, 0 0" stroke="#868e96" stroke-width="2" fill="none"></path></g><g stroke-linecap="round" transform="translate(10 280) rotate(0 70 30)"><path d="M0 0 L140 0 L140 60 L0 60" stroke="none" stroke-width="0" fill="#a5d8ff"></path><path d="M0 0 C28.09 0, 56.18 0, 140 0 M0 0 C54.5 0, 108.99 0, 140 0 M140 0 C140 15.02, 140 30.04, 140 60 M140 0 C140 22.52, 140 45.05, 140 60 M140 60 C84.82 60, 29.64 60, 0 60 M140 60 C108.11 60, 76.23 60, 0 60 M0 60 C0 38.8, 0 17.6, 0 0 M0 60 C0 40.36, 0 20.73, 0 0" stroke="#1971c2" stroke-width="2" fill="none"></path></g><g stroke-linecap="round" transform="translate(210 280) rotate(0 70 30)"><path d="M0 0 L140 0 L140 60 L0 60" stroke="none" stroke-width="0" fill="#d0bfff"></path><path d="M0 0 C28.09 0, 56.19 0, 140 0 M0 0 C28.39 0, 56.78 0, 140 0 M140 0 C140 13.52, 140 27.04, 140 60 M140 0 C140 15.56, 140 31.12, 140 60 M140 60 C90.88 60, 41.76 60, 0 60 M140 60 C85.84 60, 31.67 60, 0 60 M0 60 C0 46.72, 0 33.43, 0 0 M0 60 C0 38.1, 0 16.21, 0 0" stroke="#7048e8" stroke-width="2" fill="none"></path></g><g stroke-linecap="round" transform="translate(410 280) rotate(0 70 30)"><path d="M0 0 L140 0 L140 60 L0 60" stroke="none" stroke-width="0" fill="#ffec99"></path><path d="M0 0 C28.1 0, 56.2 0, 140 0 M0 0 C30.28 0, 60.56 0, 140 0 M140 0 C140 12.02, 140 24.04, 140 60 M140 0 C140 20.6, 140 41.2, 140 60 M140 60 C96.94 60, 53.87 60, 0 60 M140 60 C91.56 60, 43.12 60, 0 60 M0 60 C0 42.63, 0 25.26, 0 0 M0 60 C0 47.84, 0 35.69, 0 0" stroke="#e8590c" stroke-width="2" fill="none"></path></g><g stroke-linecap="round" transform="translate(610 280) rotate(0 70 30)"><path d="M0 0 L140 0 L140 60 L0 60" stroke="none" stroke-width="0" fill="#b2f2bb"></path><path d="M0 0 C28.11 0, 56.21 0, 140 0 M0 0 C32.18 0, 64.35 0, 140 0 M140 0 C140 22.52, 140 45.05, 140 60 M140 0 C140 13.64, 140 27.27, 140 60 M140 60 C103 60, 65.99 60, 0 60 M140 60 C97.28 60, 54.56 60, 0 60 M0 60 C0 38.54, 0 17.09, 0 0 M0 60 C0 45.58, 0 31.17, 0 0" stroke="#2f9e44" stroke-width="2" fill="none"></path></g><g stroke-linecap="round" transform="translate(10 405) rotate(0 60 22.5)"><path d="M0 0 L120 0 L120 45 L0 45" stroke="none" stroke-width="0" fill="#e9ecef"></path><path d="M0 0 C24.11 0, 48.22 0, 120 0 M0 0 C32.45 0, 64.89 0, 120 0 M120 0 C120 13.52, 120 27.04, 120 45 M120 0 C120 12.56, 120 25.12, 120 45 M120 45 C79.86 45, 39.72 45, 0 45 M120 45 C74.1 45, 28.2 45, 0 45 M0 45 C0 28.72, 0 12.43, 0 0 M0 45 C0 29.1, 0 13.21, 0 0" stroke="#868e96" stroke-width="1" fill="none"></path></g><g stroke-linecap="round" transform="translate(410 405) rotate(0 60 22.5)"><path d="M0 0 L120 0 L120 45 L0 45" stroke="none" stroke-width="0" fill="#e9ecef"></path><path d="M0 0 C24.1 0, 48.19 0, 120 0 M0 0 C29.2 0, 58.4 0, 120 0 M120 0 C120 15.77, 120 31.54, 120 45 M120 0 C120 14.01, 120 28.01, 120 45 M120 45 C93.47 45, 66.95 45, 0 45 M120 45 C88.29 45, 56.58 45, 0 45 M0 45 C0 34.84, 0 24.69, 0 0 M0 45 C0 32.49, 0 19.99, 0 0" stroke="#868e96" stroke-width="1" fill="none"></path></g><g stroke-linecap="round" transform="translate(610 405) rotate(0 70 22.5)"><path d="M0 0 L140 0 L140 45 L0 45" stroke="none" stroke-width="0" fill="#ffd8a8"></path><path d="M0 0 C28.12 0, 56.24 0, 140 0 M0 0 C35.96 0, 71.92 0, 140 0 M140 0 C140 14.64, 140 29.29, 140 45 M140 0 C140 17.78, 140 35.57, 140 45 M140 45 C87.11 45, 34.22 45, 0 45 M140 45 C108.73 45, 77.45 45, 0 45 M0 45 C0 31.78, 0 18.56, 0 0 M0 45 C0 30.8, 0 16.6, 0 0" stroke="#e8590c" stroke-width="1" fill="none"></path></g><g stroke-linecap="round"><g transform="translate(370 75) rotate(0 0 32.5)"><path d="M0 0 C0 10.83, 0 54.17, 0 65 M0 0 C0 10.83, 0 54.17, 0 65" stroke="#1e1e1e" stroke-width="2" fill="none"></path></g><g transform="translate(370 75) rotate(0 0 32.5)"><path d="M-10.26 36.81 C-8.19 42.49, -6.13 48.16, 0 65 M-10.26 36.81 C-8.15 42.6, -6.04 48.4, 0 65" stroke="#1e1e1e" stroke-width="2" fill="none"></path></g><g transform="translate(370 75) rotate(0 0 32.5)"><path d="M10.26 36.81 C8.19 42.49, 6.13 48.16, 0 65 M10.26 36.81 C8.15 42.6, 6.04 48.4, 0 65" stroke="#1e1e1e" stroke-width="2" fill="none"></path></g></g><g stroke-linecap="round"><g transform="translate(470 43) rotate(0 40 0)"><path d="M0 0 C13.33 0, 66.67 0, 80 0" stroke="#868e96" stroke-width="2.5" fill="none" stroke-dasharray="8 10"></path></g><g transform="translate(470 43) rotate(0 40 0)"><path d="M51.81 10.26 C57.49 8.19, 63.16 6.13, 80 0" stroke="#868e96" stroke-width="2.5" fill="none"></path></g><g transform="translate(470 43) rotate(0 40 0)"><path d="M51.81 -10.26 C57.49 -8.19, 63.16 -6.13, 80 0" stroke="#868e96" stroke-width="2.5" fill="none"></path></g></g><g stroke-linecap="round"><g transform="translate(470 173) rotate(0 40 0)"><path d="M0 0 C13.33 0, 66.67 0, 80 0" stroke="#868e96" stroke-width="2.5" fill="none" stroke-dasharray="8 10"></path></g><g transform="translate(470 173) rotate(0 40 0)"><path d="M51.81 10.26 C57.49 8.19, 63.17 6.13, 80 0" stroke="#868e96" stroke-width="2.5" fill="none"></path></g><g transform="translate(470 173) rotate(0 40 0)"><path d="M51.81 -10.26 C57.49 -8.19, 63.17 -6.13, 80 0" stroke="#868e96" stroke-width="2.5" fill="none"></path></g></g><g stroke-linecap="round"><g transform="translate(320 205) rotate(0 -120 37.5)"><path d="M0 0 C0 6.17, 40 30.83, 0 37 C-40 43.17, -200 30.67, -240 37 C-280 43.33, -240 68.67, -240 75 M0 0 C0 6.17, 40 30.83, 0 37 C-40 43.17, -200 30.67, -240 37 C-280 43.33, -240 68.67, -240 75" stroke="#1e1e1e" stroke-width="2" fill="none"></path></g><g transform="translate(320 205) rotate(0 -120 37.5)"><path d="M-256.05 64.83 C-252.82 66.88, -249.58 68.93, -240 75 M-256.05 64.83 C-252.1 67.33, -248.15 69.84, -240 75" stroke="#1e1e1e" stroke-width="2" fill="none"></path></g><g transform="translate(320 205) rotate(0 -120 37.5)"><path d="M-245.76 56.89 C-244.6 60.54, -243.44 64.19, -240 75 M-245.76 56.89 C-244.34 61.35, -242.92 65.81, -240 75" stroke="#1e1e1e" stroke-width="2" fill="none"></path></g></g><g stroke-linecap="round"><g transform="translate(150 310) rotate(0 30 0)"><path d="M0 0 C10 0, 50 0, 60 0 M0 0 C10 0, 50 0, 60 0" stroke="#1e1e1e" stroke-width="2" fill="none"></path></g><g transform="translate(150 310) rotate(0 30 0)"><path d="M31.81 10.26 C37.49 8.19, 43.17 6.12, 60 0 M31.81 10.26 C39.13 7.6, 46.45 4.93, 60 0" stroke="#1e1e1e" stroke-width="2" fill="none"></path></g><g transform="translate(150 310) rotate(0 30 0)"><path d="M31.81 -10.26 C37.49 -8.19, 43.17 -6.12, 60 0 M31.81 -10.26 C39.13 -7.6, 46.45 -4.93, 60 0" stroke="#1e1e1e" stroke-width="2" fill="none"></path></g></g><g stroke-linecap="round"><g transform="translate(350 310) rotate(0 30 0)"><path d="M0 0 C10 0, 50 0, 60 0 M0 0 C10 0, 50 0, 60 0" stroke="#1e1e1e" stroke-width="2" fill="none"></path></g><g transform="translate(350 310) rotate(0 30 0)"><path d="M31.81 10.26 C37.49 8.19, 43.17 6.12, 60 0 M31.81 10.26 C39.51 7.46, 47.21 4.65, 60 0" stroke="#1e1e1e" stroke-width="2" fill="none"></path></g><g transform="translate(350 310) rotate(0 30 0)"><path d="M31.81 -10.26 C37.49 -8.19, 43.17 -6.12, 60 0 M31.81 -10.26 C39.51 -7.46, 47.21 -4.65, 60 0" stroke="#1e1e1e" stroke-width="2" fill="none"></path></g></g><g stroke-linecap="round"><g transform="translate(550 310) rotate(0 30 0)"><path d="M0 0 C10 0, 50 0, 60 0 M0 0 C10 0, 50 0, 60 0" stroke="#1e1e1e" stroke-width="2" fill="none"></path></g><g transform="translate(550 310) rotate(0 30 0)"><path d="M31.81 10.26 C37.49 8.19, 43.18 6.12, 60 0 M31.81 10.26 C39.89 7.32, 47.97 4.38, 60 0" stroke="#1e1e1e" stroke-width="2" fill="none"></path></g><g transform="translate(550 310) rotate(0 30 0)"><path d="M31.81 -10.26 C37.49 -8.19, 43.18 -6.12, 60 0 M31.81 -10.26 C39.89 -7.32, 47.97 -4.38, 60 0" stroke="#1e1e1e" stroke-width="2" fill="none"></path></g></g><g stroke-linecap="round"><g transform="translate(480 344) rotate(0 -50 2.5)"><path d="M0 0 C0 5, 16.67 25, 0 30 C-16.67 35, -83.33 39.17, -100 30 C-116.67 20.83, -100 -15.83, -100 -25" stroke="#e8590c" stroke-width="2.5" fill="none" stroke-dasharray="8 10"></path></g><g transform="translate(480 344) rotate(0 -50 2.5)"><path d="M-96.42 2.27 C-97.14 -3.23, -97.86 -8.73, -100 -25" stroke="#e8590c" stroke-width="2.5" fill="none"></path></g><g transform="translate(480 344) rotate(0 -50 2.5)"><path d="M-114.78 -1.81 C-111.8 -6.49, -108.82 -11.16, -100 -25" stroke="#e8590c" stroke-width="2.5" fill="none"></path></g></g><g transform="translate(385 380) rotate(0 45 10)"><text x="45" y="0" font-family="Segoe UI Emoji" font-size="12px" fill="#e8590c" text-anchor="middle" style="white-space: pre;" direction="ltr">Author Feedback</text></g><g transform="translate(85 232) rotate(0 60 8)"><text x="60" y="0" font-family="Segoe UI Emoji" font-size="12px" fill="#868e96" text-anchor="middle" style="white-space: pre;" direction="ltr">dispatches to stage</text></g><g transform="translate(480 157) rotate(0 20 8)"><text x="20" y="0" font-family="Segoe UI Emoji" font-size="12px" fill="#868e96" text-anchor="middle" style="white-space: pre;" direction="ltr">reads</text></g><g transform="translate(610 455) rotate(0 70 16)"><text x="70" y="-16" font-family="Segoe UI Emoji" font-size="11px" fill="#868e96" text-anchor="middle" style="white-space: pre;" direction="ltr">Astro · Substack</text><text x="70" y="0" font-family="Segoe UI Emoji" font-size="11px" fill="#868e96" text-anchor="middle" style="white-space: pre;" direction="ltr">LinkedIn · Medium</text></g><g transform="translate(0 0)"><text x="370" y="36.1" font-family="Nunito, Segoe UI Emoji" font-size="16px" fill="#1e1e1e" text-anchor="middle" style="white-space: pre;" direction="ltr">/ea</text><text x="370" y="56.1" font-family="Nunito, Segoe UI Emoji" font-size="16px" fill="#1e1e1e" text-anchor="middle" style="white-space: pre;" direction="ltr">Orchestrator</text></g>
<g transform="translate(0 0)"><text x="625" y="37.4" font-family="Nunito, Segoe UI Emoji" font-size="14px" fill="#1e1e1e" text-anchor="middle" style="white-space: pre;" direction="ltr">State Store</text><text x="625" y="54.9" font-family="Nunito, Segoe UI Emoji" font-size="14px" fill="#1e1e1e" text-anchor="middle" style="white-space: pre;" direction="ltr">(cs CLI)</text></g>
<g transform="translate(0 0)"><text x="370" y="166.1" font-family="Nunito, Segoe UI Emoji" font-size="16px" fill="#1e1e1e" text-anchor="middle" style="white-space: pre;" direction="ltr">/content</text><text x="370" y="186.1" font-family="Nunito, Segoe UI Emoji" font-size="16px" fill="#1e1e1e" text-anchor="middle" style="white-space: pre;" direction="ltr">Pipeline Router</text></g>
<g transform="translate(0 0)"><text x="625" y="167.4" font-family="Nunito, Segoe UI Emoji" font-size="14px" fill="#1e1e1e" text-anchor="middle" style="white-space: pre;" direction="ltr">Brand Config</text><text x="625" y="184.9" font-family="Nunito, Segoe UI Emoji" font-size="14px" fill="#1e1e1e" text-anchor="middle" style="white-space: pre;" direction="ltr">&amp; Docs</text></g>
<g transform="translate(0 0)"><text x="80" y="314.05" font-family="Nunito, Segoe UI Emoji" font-size="18px" fill="#1e1e1e" text-anchor="middle" style="white-space: pre;" direction="ltr">Extract</text></g>
<g transform="translate(0 0)"><text x="280" y="314.05" font-family="Nunito, Segoe UI Emoji" font-size="18px" fill="#1e1e1e" text-anchor="middle" style="white-space: pre;" direction="ltr">Draft</text></g>
<g transform="translate(0 0)"><text x="480" y="314.05" font-family="Nunito, Segoe UI Emoji" font-size="18px" fill="#1e1e1e" text-anchor="middle" style="white-space: pre;" direction="ltr">Refine</text></g>
<g transform="translate(0 0)"><text x="680" y="314.05" font-family="Nunito, Segoe UI Emoji" font-size="18px" fill="#1e1e1e" text-anchor="middle" style="white-space: pre;" direction="ltr">Publish</text></g>
<g transform="translate(0 0)"><text x="70" y="430.65" font-family="Nunito, Segoe UI Emoji" font-size="14px" fill="#868e96" text-anchor="middle" style="white-space: pre;" direction="ltr">Teammate</text></g>
<g transform="translate(0 0)"><text x="470" y="430.65" font-family="Nunito, Segoe UI Emoji" font-size="14px" fill="#868e96" text-anchor="middle" style="white-space: pre;" direction="ltr">Preview</text></g>
<g transform="translate(0 0)"><text x="680" y="430.65" font-family="Nunito, Segoe UI Emoji" font-size="14px" fill="#1e1e1e" text-anchor="middle" style="white-space: pre;" direction="ltr">Repurpose</text></g>
</svg>